<svg width="123" height="30" viewBox="0 0 123 30" fill="none" xmlns="http://www.w3.org/2000/svg">
<path d="M12.1153 0.209412C9.50862 -0.202865 6.23092 0.0290406 4.26946 0.595922C3.44359 0.827828 2.54028 1.85852 2.25639 2.52847C2.20477 2.65731 0.036845 6.98622 2.33381 6.62548C15.6253 5.67208 21.9226 10.0525 19.5224 10.4133C14.1284 10.4133 4.75983 10.2844 1.40471 10.6709C0.862724 10.7225 0.423976 11.109 0.294933 11.6501C-0.143814 13.4796 0.0368465 14.0722 0.0368465 14.0722H24.1421C24.9938 14.0722 25.6906 13.3765 25.6906 12.5262V11.4955C25.7164 3.99721 20.5289 1.52355 12.1153 0.209412Z" fill="#376ED7"/>
<path d="M24.1675 15.9277H0.0622371C0.0622371 15.9277 -0.118423 16.5204 0.320324 18.3499C0.449367 18.8652 0.888112 19.2517 1.43009 19.329C4.81103 19.7155 14.1796 19.5867 19.5478 19.5867C21.948 19.9474 15.6507 24.3279 2.35921 23.3745C0.0622376 23.0137 2.23016 27.3427 2.28178 27.4715C2.53987 28.1157 3.46898 29.1464 4.29486 29.404C6.2305 29.9709 9.53401 30.2028 12.1407 29.7906C20.5543 28.4764 25.7418 26.0028 25.7418 18.5045V17.4738C25.716 16.6235 25.0192 15.9277 24.1675 15.9277Z" fill="#50BDEA"/>
<path d="M36.7891 23.147V6.01172H39.9119H40.6604C41.4862 6.01172 42.1831 6.03749 42.7767 6.11479C43.3703 6.19209 43.938 6.37246 44.48 6.6559C44.9446 6.88781 45.3575 7.19702 45.7188 7.6093C46.0802 8.02157 46.3641 8.45961 46.5705 8.97496C46.777 9.49031 46.8802 10.0057 46.8802 10.521C46.8802 11.2167 46.7254 11.8609 46.3899 12.4535C46.0544 13.0462 45.5898 13.51 44.9962 13.7935C45.9253 14.0769 46.648 14.618 47.1641 15.3395C47.6803 16.0867 47.9384 16.9371 47.9384 17.942C47.9384 18.7665 47.7577 19.5138 47.3964 20.2353C47.0351 20.931 46.5189 21.5237 45.8479 22.039C45.2285 22.477 44.5575 22.7862 43.809 22.9151C43.0606 23.0439 42.1572 23.147 41.0733 23.1728H36.7891V23.147ZM39.9893 12.5824H40.5829C41.6153 12.5824 42.3379 12.5051 42.7508 12.3247C43.0606 12.1701 43.2928 11.964 43.4735 11.6805C43.6542 11.3971 43.7316 11.0879 43.7316 10.7529C43.7316 10.4179 43.6283 10.1087 43.4477 9.85105C43.267 9.56761 42.9831 9.38724 42.6734 9.2584C42.4411 9.12957 42.054 9.07803 41.5637 9.07803C41.3572 9.07803 41.1765 9.07803 41.0217 9.07803C40.8668 9.07803 40.7378 9.07803 40.5829 9.1038H40.0151V12.5824H39.9893ZM39.9893 20.0549H41.3056C41.8734 20.0549 42.3637 20.0034 42.7767 19.9261C43.1896 19.8488 43.5767 19.6942 43.938 19.4365C44.5058 19.0758 44.7639 18.5089 44.7639 17.7874C44.7639 17.3751 44.6607 17.0401 44.48 16.7567C44.2994 16.4733 43.9897 16.2413 43.6283 16.0352C43.2928 15.8806 42.9573 15.7775 42.6476 15.7518C42.3121 15.726 41.8992 15.7002 41.4088 15.7002H40.0151V20.0549H39.9893Z" fill="white"/>
<path d="M50.1836 23.147V6.01172H53.2806V23.147H50.1836Z" fill="white"/>
<path d="M55.8877 23.1475V10.2896H58.9847V23.1475H55.8877ZM56.2232 8.82086V6.5791H58.675V8.82086H56.2232Z" fill="white"/>
<path d="M61.6172 23.1466V10.2887H64.4561V11.474H64.5078C64.7658 10.9329 65.2046 10.5206 65.8498 10.263C66.495 10.0053 67.1402 9.87646 67.8629 9.87646C68.5597 9.87646 69.2049 10.0053 69.7985 10.2887C70.3921 10.5722 70.9083 10.9587 71.2954 11.474C71.3987 11.5771 71.4761 11.7059 71.5793 11.8606C71.6567 11.7059 71.7858 11.5771 71.9148 11.474C72.3536 10.9587 72.8956 10.5464 73.5666 10.2887C74.2376 10.0053 74.9344 9.87646 75.6829 9.87646C77.3605 9.87646 78.6767 10.4176 79.6058 11.474C79.9671 11.8606 80.251 12.2986 80.4575 12.7624C80.6382 13.2262 80.7672 13.7158 80.8446 14.2054C80.8962 14.695 80.9479 15.2618 80.9479 15.9318V23.1466H77.8508V16.2925C77.8508 15.7514 77.825 15.2618 77.7734 14.8496C77.7218 14.4373 77.5927 14.1023 77.3863 13.8189C77.2572 13.6127 77.0766 13.4324 76.8701 13.3035C76.6636 13.1747 76.4572 13.0458 76.1991 12.9685C75.9668 12.8912 75.7087 12.8655 75.4506 12.8655C74.9861 12.8655 74.5731 12.9685 74.2118 13.1489C73.8505 13.3293 73.5408 13.6127 73.3085 13.9735C73.102 14.3342 72.973 14.7723 72.8956 15.2618C72.8181 15.7514 72.8181 16.3183 72.8181 16.9883V23.1209H69.7211V16.2668C69.7211 15.7257 69.6953 15.2618 69.6437 14.9011C69.5921 14.5404 69.463 14.2054 69.2307 13.8962C69.0243 13.5612 68.7404 13.3035 68.3791 13.1232C68.0177 12.9428 67.6306 12.8397 67.2177 12.8397C66.4434 12.8397 65.9014 13.0458 65.5143 13.4581C65.153 13.8704 64.9207 14.3342 64.8433 14.9011C64.7658 15.4422 64.7142 16.1379 64.7142 16.9883V23.1209H61.6172V23.1466Z" fill="white"/>
<path d="M89.7482 9.87646C90.6773 9.87646 91.5548 10.0568 92.3807 10.4176C93.2066 10.7783 93.9292 11.2679 94.5486 11.9121C95.168 12.5563 95.6584 13.2778 95.9939 14.1023C96.3294 14.9269 96.5101 15.803 96.5101 16.7563C96.5101 17.684 96.3294 18.5601 95.9939 19.3846C95.6584 20.2092 95.1422 20.9306 94.497 21.5748C93.8518 22.219 93.1033 22.7086 92.2774 23.0436C91.4516 23.3785 90.5483 23.5589 89.645 23.5589C88.432 23.5589 87.2964 23.2497 86.2382 22.6313C85.1801 22.0129 84.3542 21.1883 83.7348 20.1319C83.1154 19.0754 82.8057 17.9416 82.8057 16.7306C82.8057 15.7772 82.9863 14.8753 83.3476 14.0508C83.709 13.2262 84.1993 12.479 84.8445 11.8606C85.4898 11.2421 86.2124 10.7526 87.0641 10.3918C87.8642 10.0568 88.7675 9.87646 89.7482 9.87646ZM89.6192 12.8912C89.1546 12.8912 88.69 12.9943 88.1997 13.2005C87.7093 13.4066 87.2964 13.69 86.9609 14.0508C86.2382 14.7723 85.9027 15.6483 85.9027 16.7306C85.9027 17.4005 86.0576 18.0447 86.3931 18.6374C86.7286 19.23 87.1673 19.6938 87.7351 20.0288C88.3029 20.3638 88.9223 20.5441 89.6192 20.5441C90.3418 20.5441 90.987 20.3638 91.5548 20.0288C92.1226 19.6938 92.5871 19.23 92.8969 18.6374C93.2324 18.0447 93.3872 17.4005 93.3872 16.7306C93.3872 16.0349 93.2324 15.3907 92.8969 14.798C92.5613 14.2054 92.0968 13.7416 91.529 13.3808C90.9354 13.0458 90.2902 12.8912 89.6192 12.8912Z" fill="white"/>
<path d="M98.3682 23.147V6.01172H101.465V11.6548H101.517C101.93 11.0621 102.498 10.6241 103.22 10.3406C103.943 10.0572 104.691 9.90259 105.491 9.90259C106.395 9.90259 107.246 10.083 108.072 10.4437C108.898 10.8044 109.569 11.3198 110.163 11.9382C110.731 12.5824 111.195 13.3039 111.505 14.1284C111.814 14.953 111.969 15.8291 111.969 16.7309C111.969 17.5039 111.814 18.3543 111.531 19.2046C111.221 20.0807 110.834 20.8022 110.318 21.3948C110.008 21.7556 109.672 22.0648 109.337 22.3224C109.001 22.5801 108.64 22.7862 108.227 22.9666C107.84 23.147 107.401 23.3016 106.962 23.3789C106.498 23.482 106.059 23.5335 105.595 23.5335C103.659 23.5335 102.214 22.812 101.285 21.369H101.233V23.1212H98.3682V23.147ZM105.156 12.8916C104.098 12.8916 103.194 13.2523 102.42 13.9481C101.646 14.6438 101.259 15.5199 101.259 16.5506C101.259 17.2978 101.414 17.9678 101.749 18.5862C102.085 19.2046 102.523 19.6684 103.117 20.0291C103.711 20.3899 104.382 20.5445 105.13 20.5445C105.853 20.5445 106.498 20.3899 107.04 20.0549C107.582 19.7199 108.021 19.2561 108.33 18.6635C108.64 18.0708 108.795 17.4266 108.795 16.7309C108.795 16.0094 108.64 15.3653 108.33 14.7726C108.021 14.18 107.582 13.7161 107.014 13.3812C106.446 13.0462 105.853 12.8916 105.156 12.8916Z" fill="white"/>
<path d="M113.828 23.147V10.2891H116.925V23.147H113.828ZM114.138 8.82037V6.57861H116.59V8.82037H114.138Z" fill="white"/>
<path d="M119.558 23.147V6.01172H122.655V23.147H119.558Z" fill="white"/>
</svg>
