<svg width="18" height="18" viewBox="0 0 18 18" fill="none" xmlns="http://www.w3.org/2000/svg">
<path d="M13.7996 16.2001L13.9564 15.7253L13.7384 15.6533L13.5417 15.7717L13.7996 16.2001ZM16.1996 13.8001L15.7784 13.5306L15.6496 13.732L15.7254 13.9586L16.1996 13.8001ZM17.3996 17.3891L17.2428 17.8639C17.4225 17.9232 17.6203 17.8761 17.7538 17.742C17.8874 17.608 17.9338 17.41 17.8738 17.2306L17.3996 17.3891ZM13.5417 15.7717C12.3747 16.4744 10.5204 16.8891 8.99961 16.8891V17.8891C10.6492 17.8891 12.6949 17.4488 14.0575 16.6285L13.5417 15.7717ZM8.99961 16.8891C4.63624 16.8891 1.09961 13.3544 1.09961 8.99468H0.0996094C0.0996094 13.9073 4.08458 17.8891 8.99961 17.8891V16.8891ZM1.09961 8.99468C1.09961 4.63495 4.63625 1.1001 8.99961 1.1001V0.100098C4.08457 0.100098 0.0996094 4.08206 0.0996094 8.99468H1.09961ZM8.99961 1.1001C13.363 1.1001 16.8996 4.63495 16.8996 8.99468H17.8996C17.8996 4.08206 13.9146 0.100098 8.99961 0.100098V1.1001ZM16.8996 8.99468C16.8996 10.6027 16.5429 12.3358 15.7784 13.5306L16.6208 14.0696C17.5243 12.6573 17.8996 10.7133 17.8996 8.99468H16.8996ZM13.6428 16.6749L17.2428 17.8639L17.5564 16.9143L13.9564 15.7253L13.6428 16.6749ZM17.8738 17.2306L16.6738 13.6415L15.7254 13.9586L16.9254 17.5477L17.8738 17.2306Z" fill="#BBBABF"/>
</svg>
