<svg width="108" height="26" viewBox="0 0 108 26" fill="none" xmlns="http://www.w3.org/2000/svg">
<path d="M11.3501 0.181488C9.09105 -0.175815 6.25041 0.0251683 4.5505 0.516459C3.83475 0.717442 3.05189 1.6107 2.80585 2.19132C2.76112 2.30297 0.882274 6.05465 2.87296 5.74201C14.3921 4.91575 19.8497 8.71209 17.7695 9.02473C13.0948 9.02473 4.97548 8.91307 2.06774 9.24804C1.59803 9.29271 1.21778 9.62768 1.10595 10.0966C0.725704 11.6822 0.882275 12.1958 0.882275 12.1958H21.7733C22.5114 12.1958 23.1153 11.5928 23.1153 10.8559V9.96265C23.1377 3.46421 18.6418 1.32039 11.3501 0.181488Z" fill="#376ED7"/>
<path d="M21.7955 13.8042H0.904492C0.904492 13.8042 0.747921 14.3178 1.12816 15.9034C1.24 16.35 1.62024 16.685 2.08995 16.7519C5.02006 17.0869 13.1394 16.9753 17.7917 16.9753C19.8719 17.2879 14.4143 21.0842 2.89518 20.258C0.904492 19.9453 2.78334 23.697 2.82807 23.8087C3.05175 24.367 3.85697 25.2602 4.57272 25.4835C6.25026 25.9748 9.11326 26.1758 11.3724 25.8185C18.6641 24.6796 23.1599 22.5358 23.1599 16.0373V15.1441C23.1375 14.4071 22.5336 13.8042 21.7955 13.8042Z" fill="#50BDEA"/>
<path d="M32.7338 20.0608V5.21045H35.4402H36.0888C36.8046 5.21045 37.4085 5.23278 37.923 5.29978C38.4374 5.36677 38.9295 5.52309 39.3992 5.76873C39.8018 5.96972 40.1597 6.2377 40.4728 6.595C40.786 6.9523 41.032 7.33193 41.2109 7.77856C41.3899 8.22519 41.4793 8.67182 41.4793 9.11845C41.4793 9.7214 41.3451 10.2797 41.0544 10.7933C40.7636 11.3069 40.361 11.7089 39.8465 11.9545C40.6518 12.2002 41.278 12.6691 41.7254 13.2944C42.1727 13.942 42.3964 14.679 42.3964 15.5499C42.3964 16.2645 42.2398 16.9121 41.9267 17.5374C41.6135 18.1403 41.1662 18.654 40.5846 19.1006C40.0478 19.4802 39.4663 19.7482 38.8176 19.8599C38.169 19.9715 37.3861 20.0608 36.4467 20.0832H32.7338V20.0608ZM35.5073 10.905H36.0217C36.9164 10.905 37.5427 10.838 37.9006 10.6816C38.169 10.5477 38.3703 10.369 38.5269 10.1234C38.6834 9.87772 38.7505 9.60974 38.7505 9.31943C38.7505 9.02912 38.6611 8.76115 38.5045 8.53783C38.3479 8.29219 38.1019 8.13587 37.8335 8.02421C37.6322 7.91255 37.2967 7.86789 36.8717 7.86789C36.6928 7.86789 36.5362 7.86789 36.402 7.86789C36.2678 7.86789 36.1559 7.86789 36.0217 7.89022H35.5297V10.905H35.5073ZM35.5073 17.3811H36.648C37.1401 17.3811 37.5651 17.3364 37.923 17.2694C38.2808 17.2024 38.6163 17.0684 38.9295 16.8451C39.4216 16.5325 39.6452 16.0412 39.6452 15.4159C39.6452 15.0586 39.5558 14.7683 39.3992 14.5227C39.2426 14.277 38.9742 14.076 38.6611 13.8974C38.3703 13.7634 38.0795 13.6741 37.8111 13.6517C37.5203 13.6294 37.1625 13.6071 36.7375 13.6071H35.5297V17.3811H35.5073Z" fill="white"/>
<path d="M44.3424 20.0608V5.21045H47.0265V20.0608H44.3424Z" fill="white"/>
<path d="M49.2859 20.0612V8.91787H51.97V20.0612H49.2859ZM49.5767 7.64498V5.70215H51.7016V7.64498H49.5767Z" fill="white"/>
<path d="M54.2511 20.0607V8.91736H56.7115V9.94461H56.7562C56.9799 9.47565 57.3601 9.11834 57.9193 8.89503C58.4785 8.67172 59.0377 8.56006 59.664 8.56006C60.2679 8.56006 60.8271 8.67172 61.3415 8.91736C61.856 9.16301 62.3033 9.49798 62.6388 9.94461C62.7283 10.0339 62.7954 10.1456 62.8848 10.2796C62.952 10.1456 63.0638 10.0339 63.1756 9.94461C63.5559 9.49798 64.0256 9.14068 64.6071 8.91736C65.1887 8.67172 65.7926 8.56006 66.4412 8.56006C67.8951 8.56006 69.0358 9.02902 69.8411 9.94461C70.1542 10.2796 70.4002 10.6592 70.5792 11.0612C70.7357 11.4631 70.8476 11.8874 70.9147 12.3117C70.9594 12.736 71.0041 13.2273 71.0041 13.8079V20.0607H68.3201V14.1206C68.3201 13.6516 68.2977 13.2273 68.253 12.87C68.2082 12.5127 68.0964 12.2224 67.9175 11.9768C67.8056 11.7981 67.6491 11.6418 67.4701 11.5301C67.2912 11.4185 67.1123 11.3068 66.8886 11.2398C66.6873 11.1728 66.4636 11.1505 66.2399 11.1505C65.8373 11.1505 65.4794 11.2398 65.1663 11.3962C64.8532 11.5525 64.5848 11.7981 64.3835 12.1108C64.2045 12.4234 64.0927 12.803 64.0256 13.2273C63.9585 13.6516 63.9585 14.1429 63.9585 14.7235V20.0384H61.2744V14.0983C61.2744 13.6293 61.252 13.2273 61.2073 12.9147C61.1626 12.602 61.0507 12.3117 60.8494 12.0438C60.6705 11.7535 60.4245 11.5301 60.1113 11.3738C59.7982 11.2175 59.4627 11.1282 59.1048 11.1282C58.4338 11.1282 57.9641 11.3068 57.6286 11.6641C57.3154 12.0214 57.1141 12.4234 57.047 12.9147C56.9799 13.3836 56.9352 13.9866 56.9352 14.7235V20.0384H54.2511V20.0607Z" fill="white"/>
<path d="M78.6313 8.56006C79.4365 8.56006 80.197 8.71638 80.9128 9.02902C81.6285 9.34166 82.2548 9.76596 82.7916 10.3242C83.3284 10.8825 83.7534 11.5078 84.0442 12.2224C84.3349 12.937 84.4915 13.6963 84.4915 14.5225C84.4915 15.3265 84.3349 16.0857 84.0442 16.8004C83.7534 17.515 83.306 18.1402 82.7469 18.6985C82.1877 19.2568 81.539 19.6811 80.8233 19.9714C80.1075 20.2617 79.3247 20.418 78.5418 20.418C77.4906 20.418 76.5064 20.1501 75.5893 19.6141C74.6723 19.0782 73.9565 18.3636 73.4197 17.448C72.8829 16.5324 72.6145 15.5498 72.6145 14.5002C72.6145 13.674 72.7711 12.8924 73.0842 12.1778C73.3974 11.4631 73.8223 10.8155 74.3815 10.2796C74.9407 9.74363 75.567 9.31933 76.3051 9.00669C76.9985 8.71638 77.7813 8.56006 78.6313 8.56006ZM78.5195 11.1728C78.1168 11.1728 77.7142 11.2622 77.2893 11.4408C76.8643 11.6195 76.5064 11.8651 76.2156 12.1778C75.5893 12.803 75.2986 13.5623 75.2986 14.5002C75.2986 15.0808 75.4328 15.6391 75.7235 16.1527C76.0143 16.6664 76.3946 17.0683 76.8866 17.3586C77.3787 17.6489 77.9155 17.8053 78.5195 17.8053C79.1457 17.8053 79.7049 17.6489 80.197 17.3586C80.6891 17.0683 81.0917 16.6664 81.3601 16.1527C81.6509 15.6391 81.7851 15.0808 81.7851 14.5002C81.7851 13.8973 81.6509 13.339 81.3601 12.8254C81.0693 12.3117 80.6667 11.9098 80.1746 11.5971C79.6602 11.3068 79.101 11.1728 78.5195 11.1728Z" fill="white"/>
<path d="M86.1018 20.0608V5.21045H88.7859V10.101H88.8306C89.1885 9.58741 89.6806 9.20777 90.3068 8.96213C90.9331 8.71648 91.5818 8.58249 92.2752 8.58249C93.058 8.58249 93.7961 8.73882 94.5119 9.05146C95.2276 9.3641 95.8092 9.81072 96.3236 10.3467C96.8157 10.905 97.2183 11.5302 97.4867 12.2448C97.7551 12.9595 97.8893 13.7187 97.8893 14.5003C97.8893 15.1703 97.7551 15.9072 97.5091 16.6441C97.2407 17.4034 96.9052 18.0287 96.4578 18.5423C96.1894 18.8549 95.8987 19.1229 95.6079 19.3462C95.3171 19.5696 95.004 19.7482 94.6461 19.9045C94.3106 20.0608 93.9303 20.1948 93.5501 20.2618C93.1475 20.3512 92.7672 20.3958 92.3646 20.3958C90.6871 20.3958 89.4345 19.7705 88.6293 18.52H88.5846V20.0385H86.1018V20.0608ZM91.9844 11.1729C91.0673 11.1729 90.2845 11.4856 89.6135 12.0885C88.9424 12.6915 88.6069 13.4507 88.6069 14.344C88.6069 14.9916 88.7411 15.5722 89.0319 16.1082C89.3227 16.6441 89.7029 17.0461 90.2174 17.3587C90.7318 17.6714 91.3134 17.8054 91.962 17.8054C92.5883 17.8054 93.1475 17.6714 93.6172 17.3811C94.0869 17.0908 94.4672 16.6888 94.7356 16.1752C95.004 15.6616 95.1382 15.1033 95.1382 14.5003C95.1382 13.875 95.004 13.3168 94.7356 12.8031C94.4672 12.2895 94.0869 11.8875 93.5948 11.5972C93.1027 11.3069 92.5883 11.1729 91.9844 11.1729Z" fill="white"/>
<path d="M99.5001 20.0608V8.91738H102.184V20.0608H99.5001ZM99.7685 7.64449V5.70166H101.893V7.64449H99.7685Z" fill="white"/>
<path d="M104.466 20.0608V5.21045H107.15V20.0608H104.466Z" fill="white"/>
</svg>
