<svg width="18" height="18" viewBox="0 0 18 18" fill="none" xmlns="http://www.w3.org/2000/svg">
<path d="M1.8 1.2002C0.805888 1.2002 0 2.00608 0 3.0002V5.4002C0 6.39431 0.805888 7.20019 1.8 7.20019H4.2C5.19411 7.20019 6 6.39431 6 5.4002V3.0002C6 2.00608 5.19411 1.2002 4.2 1.2002H1.8Z" fill="#555555"/>
<path d="M8.4 4.8002H18V3.6002H8.4V4.8002Z" fill="#555555"/>
<path d="M1.8 10.8002C0.805888 10.8002 0 11.6061 0 12.6002V15.0002C0 15.9943 0.805888 16.8002 1.8 16.8002H4.2C5.19411 16.8002 6 15.9943 6 15.0002V12.6002C6 11.6061 5.19411 10.8002 4.2 10.8002H1.8Z" fill="#555555"/>
<path d="M8.4 14.4002H18V13.2002H8.4V14.4002Z" fill="#555555"/>
</svg>
